<svg width="24" height="24" viewBox="0 0 24 24" fill="none" xmlns="http://www.w3.org/2000/svg">
<circle cx="11.5352" cy="11.5352" r="11.5352" fill="#888585"/>
<path fill-rule="evenodd" clip-rule="evenodd" d="M18.7447 11.7111C18.7447 7.83539 15.6022 4.69287 11.7265 4.69287C7.85083 4.69287 4.70831 7.83539 4.70831 11.7111C4.70831 15.2139 7.27434 18.1174 10.6299 18.6444V13.7404H8.84748V11.7111H10.6299V10.1649C10.6299 8.40625 11.6779 7.43404 13.2808 7.43404C14.0488 7.43404 14.8521 7.57127 14.8521 7.57127V9.29856H13.9667C13.0954 9.29856 12.8228 9.83934 12.8228 10.3952V11.7111H14.7691L14.4583 13.7404H12.8231V18.645C16.1787 18.1183 18.7447 15.2148 18.7447 11.7111Z" fill="white"/>
</svg>
