<svg width="24" height="24" viewBox="0 0 24 24" fill="none" xmlns="http://www.w3.org/2000/svg">
<circle cx="11.6056" cy="11.5352" r="11.5352" fill="#888585"/>
<path d="M14.5801 6.16009C15.3177 6.16229 16.0244 6.45626 16.5459 6.97778C17.0674 7.49931 17.3614 8.20602 17.3636 8.94356V14.5099C17.3614 15.2475 17.0674 15.9542 16.5459 16.4757C16.0244 16.9972 15.3177 17.2912 14.5801 17.2934H9.01376C8.27621 17.2912 7.5695 16.9972 7.04797 16.4757C6.52645 15.9542 6.23248 15.2475 6.23028 14.5099V8.94356C6.23248 8.20602 6.52645 7.49931 7.04797 6.97778C7.5695 6.45626 8.27621 6.16229 9.01376 6.16009H14.5801ZM14.5801 5.04688H9.01376C6.87053 5.04688 5.11707 6.80034 5.11707 8.94356V14.5099C5.11707 16.6531 6.87053 18.4066 9.01376 18.4066H14.5801C16.7233 18.4066 18.4768 16.6531 18.4768 14.5099V8.94356C18.4768 6.80034 16.7233 5.04688 14.5801 5.04688Z" fill="white"/>
<path d="M15.4151 8.94341C15.25 8.94341 15.0885 8.89443 14.9512 8.80269C14.8139 8.71094 14.7069 8.58053 14.6437 8.42796C14.5805 8.27538 14.564 8.1075 14.5962 7.94552C14.6284 7.78355 14.7079 7.63477 14.8247 7.518C14.9415 7.40122 15.0903 7.3217 15.2522 7.28948C15.4142 7.25726 15.5821 7.2738 15.7347 7.337C15.8872 7.4002 16.0176 7.50722 16.1094 7.64453C16.2011 7.78184 16.2501 7.94328 16.2501 8.10842C16.2503 8.21814 16.2289 8.32682 16.187 8.42823C16.1451 8.52965 16.0837 8.62179 16.0061 8.69937C15.9285 8.77695 15.8363 8.83845 15.7349 8.88033C15.6335 8.9222 15.5248 8.94364 15.4151 8.94341Z" fill="white"/>
<path d="M11.797 9.50042C12.2374 9.50042 12.6679 9.63101 13.0341 9.87569C13.4003 10.1204 13.6857 10.4681 13.8542 10.875C14.0227 11.2819 14.0668 11.7296 13.9809 12.1616C13.895 12.5935 13.6829 12.9903 13.3715 13.3017C13.0601 13.6131 12.6633 13.8252 12.2314 13.9111C11.7994 13.997 11.3517 13.9529 10.9448 13.7844C10.538 13.6158 10.1902 13.3304 9.94552 12.9642C9.70084 12.5981 9.57024 12.1675 9.57024 11.7271C9.57088 11.1368 9.80568 10.5708 10.2231 10.1533C10.6406 9.73585 11.2066 9.50105 11.797 9.50042ZM11.797 8.38721C11.1364 8.38721 10.4906 8.58309 9.9414 8.95009C9.39215 9.31708 8.96406 9.83871 8.71127 10.449C8.45848 11.0593 8.39234 11.7308 8.52121 12.3787C8.65008 13.0266 8.96818 13.6217 9.43528 14.0888C9.90238 14.5559 10.4975 14.874 11.1454 15.0029C11.7933 15.1318 12.4648 15.0656 13.0751 14.8128C13.6854 14.56 14.207 14.132 14.574 13.5827C14.941 13.0335 15.1369 12.3877 15.1369 11.7271C15.1369 10.8413 14.785 9.99181 14.1587 9.36545C13.5323 8.73909 12.6828 8.38721 11.797 8.38721Z" fill="white"/>
</svg>
