<svg width="14" height="12" viewBox="0 0 14 12" fill="none" xmlns="http://www.w3.org/2000/svg">
<path d="M0.860833 0C0.385408 0 0 0.385408 0 0.860832C0 1.33626 0.385408 1.72166 0.860832 1.72166H13.1392C13.6146 1.72166 14 1.33626 14 0.860832C14 0.385408 13.6146 0 13.1392 0H0.860833ZM0.860833 5.11334C0.385408 5.11334 0 5.49875 0 5.97418C0 6.4496 0.385408 6.83501 0.860832 6.83501H13.1392C13.6146 6.83501 14 6.4496 14 5.97418C14 5.49875 13.6146 5.11334 13.1392 5.11334H0.860833ZM0.860833 10.2783C0.385408 10.2783 0 10.6637 0 11.1392C0 11.6146 0.385408 12 0.860832 12H13.1392C13.6146 12 14 11.6146 14 11.1392C14 10.6637 13.6146 10.2783 13.1392 10.2783H0.860833Z" fill="#FF7324"/>
</svg>
