<svg width="31" height="25" viewBox="0 0 31 25" fill="none" xmlns="http://www.w3.org/2000/svg">
<path d="M20.5957 12.0983C19.2724 12.0983 17.9929 11.4673 16.9915 10.3221C16.0177 9.20504 15.423 7.71544 15.3181 6.1289C15.2061 4.43651 15.6895 2.88023 16.6787 1.74601C17.6679 0.611791 19.051 0 20.5957 0C22.1294 0 23.5163 0.622789 24.5023 1.75426C25.498 2.89672 25.9826 4.45026 25.8706 6.12822C25.7631 7.71681 25.1691 9.20573 24.1972 10.3214C23.1984 11.4673 21.9195 12.0983 20.5957 12.0983Z" fill="#FF7324"/>
<path d="M29.0803 24.1967H12.1117C11.8389 24.1983 11.5694 24.133 11.3239 24.0058C11.0784 23.8787 10.8636 23.693 10.6958 23.4633C10.5178 23.2142 10.3949 22.9253 10.3363 22.6183C10.2777 22.3113 10.2849 21.9941 10.3573 21.6904C10.8992 19.3663 12.2417 17.4388 14.2395 16.117C16.0126 14.9443 18.2697 14.2981 20.5957 14.2981C22.9673 14.2981 25.1652 14.9168 26.9486 16.0888C28.9509 17.4038 30.2954 19.3423 30.8347 21.6946C30.9062 21.9984 30.9126 22.3156 30.8533 22.6225C30.794 22.9293 30.6706 23.2179 30.4923 23.4667C30.3247 23.6954 30.1103 23.8801 29.8656 24.0067C29.6208 24.1332 29.3522 24.1982 29.0803 24.1967Z" fill="#FF7324"/>
<path d="M8.43163 12.3733C6.16679 12.3733 4.17549 10.1241 3.99078 7.36006C3.89939 5.944 4.31258 4.6345 5.14926 3.67419C5.97693 2.72351 7.14442 2.19971 8.43163 2.19971C9.71883 2.19971 10.8773 2.72626 11.7095 3.68244C12.5526 4.65031 12.9645 5.95706 12.868 7.36143C12.6833 10.1248 10.6926 12.3733 8.43163 12.3733Z" fill="#FF7324"/>
<path d="M12.6575 14.5352C11.5254 13.944 10.056 13.6484 8.43223 13.6484C6.53618 13.6484 4.69484 14.1764 3.24674 15.1346C1.60491 16.2228 0.500493 17.8072 0.0544776 19.7203C-0.0107932 19.9955 -0.0169666 20.2828 0.036419 20.5609C0.0898046 20.839 0.201367 21.1005 0.362762 21.3261C0.515906 21.536 0.712099 21.7057 0.936254 21.822C1.16041 21.9383 1.40655 21.9982 1.65576 21.997H8.79973C8.92031 21.997 9.03705 21.9517 9.12962 21.8692C9.22218 21.7867 9.28469 21.6721 9.30624 21.5453C9.31332 21.502 9.32233 21.4587 9.33263 21.4161C9.8784 19.0748 11.1572 17.0965 13.0469 15.6543C13.1164 15.6008 13.1723 15.5296 13.2095 15.4472C13.2467 15.3648 13.2641 15.2737 13.2601 15.1823C13.2561 15.0909 13.2307 15.002 13.1864 14.9237C13.1421 14.8454 13.0802 14.7802 13.0063 14.7339C12.9053 14.6706 12.7894 14.6039 12.6575 14.5352Z" fill="#FF7324"/>
</svg>
