<svg width="19" height="19" viewBox="0 0 19 19" fill="none" xmlns="http://www.w3.org/2000/svg">
<path d="M8.23792 0.0235369C3.6953 0.0235369 0 3.71883 0 8.26146C0 12.8041 3.6953 16.4994 8.23792 16.4994C9.6266 16.4994 10.9917 16.1699 12.145 15.5344C12.2374 15.6455 12.3399 15.748 12.451 15.8403L14.8047 18.194C15.0221 18.4386 15.2871 18.6361 15.5835 18.7745C15.88 18.913 16.2016 18.9893 16.5286 18.999C16.8556 19.0086 17.1812 18.9513 17.4852 18.8305C17.7893 18.7098 18.0655 18.5282 18.2968 18.2968C18.5282 18.0655 18.7098 17.7893 18.8305 17.4852C18.9513 17.1812 19.0086 16.8556 18.999 16.5286C18.9893 16.2016 18.913 15.88 18.7746 15.5835C18.6361 15.2871 18.4386 15.0221 18.194 14.8047L15.8403 12.451C15.7257 12.3363 15.5995 12.2338 15.4638 12.145C16.0993 10.9917 16.4994 9.65013 16.4994 8.23792C16.4994 3.6953 12.8041 0 8.26146 0L8.23792 0.0235369ZM8.23792 2.37723C11.5096 2.37723 14.1221 4.98983 14.1221 8.26146C14.1221 9.81489 13.5573 11.2506 12.5687 12.3098C12.5452 12.3333 12.5216 12.3569 12.4981 12.3804C12.3869 12.4728 12.2845 12.5752 12.1921 12.6864C11.1565 13.6279 9.74428 14.1692 8.21438 14.1692C4.94275 14.1692 2.33015 11.5566 2.33015 8.28499C2.33015 5.01336 4.94275 2.40077 8.21438 2.40077L8.23792 2.37723Z" fill="white"/>
</svg>
