<svg width="33" height="34" viewBox="0 0 33 34" fill="none" xmlns="http://www.w3.org/2000/svg">
<path d="M17.3674 24.367V8.99693C17.3674 8.82002 17.2244 8.677 17.0479 8.677C12.6338 8.677 9.04236 12.2677 9.04236 16.6821C9.04236 21.0963 12.6338 24.6873 17.0479 24.6873C17.2248 24.6869 17.3674 24.5435 17.3674 24.367Z" fill="#FF7324"/>
<path d="M25.4776 16.3887C25.3275 12.6122 22.5179 9.40288 18.7972 8.75782C18.6486 8.731 18.5019 8.81405 18.446 8.95446C18.3898 9.09487 18.4397 9.25576 18.5656 9.33956C20.6318 10.7153 21.9879 13.4129 22.1063 16.379C22.2374 19.6546 20.8501 22.675 18.573 24.0731C18.4419 24.154 18.3868 24.3152 18.4412 24.4586C18.4888 24.586 18.6091 24.6668 18.7406 24.6668C18.7589 24.6668 18.7775 24.6653 18.7954 24.6616C22.7652 23.9756 25.6378 20.4192 25.4776 16.3887Z" fill="#FF7324"/>
<path d="M17.052 6.83905C17.522 6.83905 17.9034 6.45656 17.9034 5.98654V0.852507C17.9034 0.382492 17.522 0 17.052 0C16.582 0 16.1995 0.382492 16.1995 0.852507V5.98654C16.1995 6.45656 16.582 6.83905 17.052 6.83905Z" fill="#FF7324"/>
<path d="M8.88818 9.69606C9.04907 9.85733 9.26285 9.94597 9.49116 9.94597C9.71946 9.94597 9.93361 9.85696 10.0938 9.69606C10.2547 9.5348 10.3429 9.32102 10.3429 9.09309C10.3429 8.86553 10.2543 8.65138 10.0934 8.49012L6.53699 4.93484C6.21558 4.61305 5.65394 4.61268 5.33141 4.93484C4.99957 5.26742 4.99957 5.80783 5.33216 6.13967L8.88818 9.69606Z" fill="#FF7324"/>
<path d="M17.0535 26.3949C16.5838 26.3949 16.2017 26.7774 16.2017 27.2474V32.3814C16.2017 32.8515 16.5838 33.2339 17.0535 33.2339C17.5235 33.2339 17.9056 32.8515 17.9056 32.3814V27.2474C17.9056 26.7774 17.5231 26.3949 17.0535 26.3949Z" fill="#FF7324"/>
<path d="M9.49265 23.2881C9.26471 23.2881 9.05056 23.3775 8.89004 23.5391L5.33179 27.094C4.99957 27.4259 4.99957 27.9663 5.33179 28.2992C5.65357 28.6214 6.21595 28.6214 6.53736 28.2992L10.0952 24.7443C10.2565 24.5827 10.3452 24.3696 10.3452 24.1421C10.3452 23.9138 10.2565 23.6996 10.096 23.5391C9.9351 23.3775 9.72095 23.2881 9.49265 23.2881Z" fill="#FF7324"/>
<path d="M7.23568 16.6546C7.23568 16.185 6.85393 15.8021 6.38354 15.8021H0.852492C0.382477 15.8021 -1.52588e-05 16.1846 -1.52588e-05 16.6546C-1.52588e-05 17.1254 0.382477 17.5075 0.852492 17.5075H6.38392C6.85393 17.5075 7.23568 17.1254 7.23568 16.6546Z" fill="#FF7324"/>
<path d="M27.4847 6.82598C26.4359 6.54293 26.2426 6.30308 26.0061 4.9921C25.9867 4.88521 25.894 4.80737 25.7853 4.80737C25.6765 4.80737 25.5834 4.88521 25.5644 4.9921C25.3257 6.30345 25.1327 6.54367 24.0836 6.82598C23.9856 6.85242 23.9179 6.94181 23.9179 7.04311C23.9179 7.14441 23.9856 7.2338 24.0832 7.25987C25.1339 7.54441 25.3275 7.78463 25.5637 9.09449C25.583 9.20138 25.6761 9.27922 25.7853 9.27922C25.894 9.27922 25.9867 9.20138 26.0061 9.09412C26.2411 7.78537 26.4344 7.54515 27.4851 7.25987C27.583 7.23342 27.6508 7.14441 27.6508 7.04274C27.6508 6.94143 27.583 6.85242 27.4847 6.82598Z" fill="#FF7324"/>
<path d="M27.4847 26.3759C26.4363 26.0921 26.2426 25.8523 26.0061 24.5413C25.9867 24.4344 25.894 24.3566 25.7853 24.3566C25.6765 24.3566 25.5834 24.4344 25.5644 24.5413C25.3257 25.8523 25.1327 26.0921 24.0836 26.3759C23.9856 26.4012 23.9179 26.491 23.9179 26.5919C23.9179 26.6936 23.9856 26.7834 24.0836 26.8094C25.1339 27.0932 25.3275 27.3331 25.5637 28.6441C25.583 28.7502 25.6761 28.828 25.7853 28.828C25.894 28.828 25.9867 28.7502 26.0061 28.6433C26.2411 27.3346 26.4344 27.0947 27.4851 26.8094C27.583 26.7826 27.6508 26.6936 27.6508 26.5919C27.6508 26.491 27.583 26.4012 27.4847 26.3759Z" fill="#FF7324"/>
<path d="M32.3815 16.3213C30.9692 15.9001 30.6947 15.5422 30.4202 13.7664C30.4035 13.6591 30.313 13.5787 30.2042 13.5757C30.0947 13.5716 30.0005 13.6483 29.9785 13.7545C29.6128 15.515 29.3193 15.8584 27.8877 16.2062C27.7893 16.2301 27.7193 16.3172 27.716 16.4189C27.7137 16.5202 27.7797 16.6111 27.8765 16.6398C29.2914 17.061 29.5662 17.4189 29.8396 19.1954C29.856 19.303 29.9476 19.3831 30.0564 19.3861C30.0578 19.3861 30.0597 19.3861 30.0619 19.3861C30.1681 19.3861 30.2601 19.3112 30.2821 19.2066C30.6437 17.4498 30.9368 17.1057 32.3707 16.7548C32.4697 16.7306 32.5394 16.6435 32.542 16.5422C32.5446 16.4405 32.4787 16.3504 32.3815 16.3213Z" fill="#FF7324"/>
</svg>
