<svg width="24" height="24" viewBox="0 0 24 24" fill="none" xmlns="http://www.w3.org/2000/svg">
<circle cx="11.6761" cy="11.5352" r="11.5352" fill="#888585"/>
<path d="M15.6722 7.79883C15.5853 7.75394 15.5008 7.70473 15.4189 7.65139C15.1806 7.49389 14.9622 7.30831 14.7683 7.09864C14.2831 6.54348 14.1019 5.98028 14.0351 5.58595H14.0378C13.982 5.25865 14.0051 5.04688 14.0086 5.04688H11.7987V13.5922C11.7987 13.707 11.7987 13.8204 11.7938 13.9324C11.7938 13.9463 11.7925 13.9592 11.7917 13.9742C11.7917 13.9804 11.7917 13.9868 11.7903 13.9933V13.9981C11.7671 14.3047 11.6688 14.6009 11.5041 14.8606C11.3395 15.1203 11.1136 15.3356 10.8462 15.4875C10.5676 15.646 10.2524 15.7291 9.93186 15.7287C8.90222 15.7287 8.06774 14.8891 8.06774 13.8523C8.06774 12.8154 8.90222 11.9758 9.93186 11.9758C10.1268 11.9756 10.3205 12.0063 10.5058 12.0667L10.5085 9.81655C9.94589 9.74388 9.37437 9.78859 8.82994 9.94785C8.28552 10.1071 7.78001 10.3775 7.3453 10.7419C6.9644 11.0729 6.64417 11.4677 6.39904 11.9088C6.30575 12.0696 5.95378 12.7159 5.91116 13.7649C5.88435 14.3602 6.06315 14.9771 6.14839 15.232V15.2373C6.20201 15.3875 6.40976 15.8997 6.74832 16.3316C7.02133 16.678 7.34388 16.9823 7.70558 17.2347V17.2293L7.71094 17.2347C8.78079 17.9617 9.96697 17.914 9.96697 17.914C10.1723 17.9057 10.8602 17.914 11.6413 17.5438C12.5077 17.1334 13.0009 16.5219 13.0009 16.5219C13.316 16.1566 13.5666 15.7402 13.7419 15.2907C13.9418 14.765 14.0086 14.1345 14.0086 13.8825V9.34904C14.0354 9.36513 14.3925 9.60129 14.3925 9.60129C14.3925 9.60129 14.9069 9.93101 15.7094 10.1457C16.2853 10.2985 17.061 10.3307 17.061 10.3307V8.13685C16.7892 8.16634 16.2373 8.08056 15.6722 7.79883Z" fill="white"/>
</svg>
