<svg width="28" height="22" viewBox="0 0 28 22" fill="none" xmlns="http://www.w3.org/2000/svg">
<path d="M19.6684 13.408C18.0549 11.9738 15.9712 11.1815 13.8123 11.1815C11.6535 11.1815 9.56976 11.9738 7.95626 13.408C7.81992 13.526 7.70838 13.6699 7.62811 13.8314C7.54785 13.9928 7.50046 14.1686 7.4887 14.3485C7.47694 14.5284 7.50104 14.7089 7.55961 14.8794C7.61817 15.0499 7.71004 15.2071 7.82986 15.3418C7.94968 15.4765 8.09508 15.5861 8.2576 15.6642C8.42012 15.7422 8.59653 15.7872 8.77659 15.7965C8.95665 15.8058 9.13676 15.7793 9.30646 15.7184C9.47617 15.6575 9.63209 15.5635 9.76516 15.4418C10.8803 14.4507 12.3204 13.9033 13.8123 13.9033C15.3043 13.9033 16.7444 14.4507 17.8595 15.4418C18.1294 15.6817 18.4835 15.8046 18.8439 15.7834C19.2044 15.7621 19.5416 15.5986 19.7815 15.3287C20.0214 15.0589 20.1442 14.7048 20.123 14.3443C20.1018 13.9839 19.9383 13.6466 19.6684 13.4067V13.408Z" fill="#FF7324"/>
<path d="M13.8114 5.59169C10.1571 5.58665 6.63851 6.97555 3.97293 9.47522C3.83797 9.59611 3.72851 9.74273 3.65096 9.90649C3.57341 10.0702 3.52934 10.2478 3.52133 10.4288C3.51332 10.6099 3.54153 10.7906 3.60431 10.9606C3.66709 11.1306 3.76317 11.2863 3.88693 11.4186C4.01068 11.551 4.15961 11.6573 4.32499 11.7313C4.49037 11.8053 4.66886 11.8456 4.85 11.8497C5.03114 11.8538 5.21129 11.8218 5.37987 11.7554C5.54845 11.689 5.70207 11.5896 5.83174 11.463C7.99611 9.43948 10.8484 8.31381 13.8114 8.31381C16.7743 8.31381 19.6266 9.43948 21.791 11.463C21.9207 11.5896 22.0743 11.689 22.2429 11.7554C22.4115 11.8218 22.5916 11.8538 22.7728 11.8497C22.9539 11.8456 23.1324 11.8053 23.2978 11.7313C23.4631 11.6573 23.6121 11.551 23.7358 11.4186C23.8596 11.2863 23.9557 11.1306 24.0184 10.9606C24.0812 10.7906 24.1094 10.6099 24.1014 10.4288C24.0934 10.2478 24.0493 10.0702 23.9718 9.90649C23.8942 9.74273 23.7848 9.59611 23.6498 9.47522C20.9842 6.97555 17.4656 5.58665 13.8114 5.59169Z" fill="#FF7324"/>
<path d="M27.1445 5.08351C23.475 1.80945 18.7291 0 13.8114 0C8.8936 0 4.14774 1.80945 0.478266 5.08351C0.340357 5.20132 0.227383 5.34549 0.145985 5.50758C0.064586 5.66966 0.0164042 5.84638 0.00427007 6.02735C-0.00786404 6.20831 0.0162944 6.38988 0.075326 6.56138C0.134357 6.73288 0.227071 6.89085 0.348019 7.02601C0.468967 7.16117 0.61571 7.27079 0.779625 7.34843C0.94354 7.42608 1.12132 7.47018 1.30252 7.47814C1.48372 7.4861 1.66468 7.45777 1.83477 7.3948C2.00487 7.33183 2.16066 7.23551 2.293 7.11148C5.46336 4.28398 9.563 2.72142 13.811 2.72142C18.0591 2.72142 22.1587 4.28398 25.3291 7.11148C25.5982 7.35213 25.9519 7.47602 26.3123 7.4559C26.6727 7.43579 27.0104 7.27331 27.2511 7.00421C27.4917 6.73512 27.6156 6.38144 27.5955 6.021C27.5754 5.66056 27.4129 5.32287 27.1438 5.08222L27.1445 5.08351Z" fill="#FF7324"/>
<path d="M13.8114 21.2573C14.9568 21.2573 15.8854 20.3288 15.8854 19.1834C15.8854 18.0379 14.9568 17.1094 13.8114 17.1094C12.6659 17.1094 11.7374 18.0379 11.7374 19.1834C11.7374 20.3288 12.6659 21.2573 13.8114 21.2573Z" fill="#FF7324"/>
</svg>
