<svg width="24" height="24" viewBox="0 0 24 24" fill="none" xmlns="http://www.w3.org/2000/svg">
<circle cx="11.7465" cy="11.5352" r="11.5352" fill="#888585"/>
<path d="M18.4831 8.81357C18.4831 7.57974 17.5756 6.5872 16.4542 6.5872C14.9352 6.51619 13.3861 6.48877 11.8029 6.48877H11.3094C9.73011 6.48877 8.17824 6.51619 6.65927 6.58748C5.5406 6.58748 4.63306 7.5855 4.63306 8.81932C4.56451 9.79514 4.53545 10.7712 4.53709 11.7473C4.53435 12.7234 4.56543 13.7004 4.63032 14.6783C4.63032 15.9122 5.53786 16.9129 6.65653 16.9129C8.25227 16.987 9.88914 17.0199 11.5534 17.0171C13.2205 17.0226 14.8528 16.9879 16.4503 16.9129C17.5717 16.9129 18.4793 15.9122 18.4793 14.6783C18.5451 13.6995 18.5753 12.7234 18.5725 11.7446C18.5787 10.7685 18.5489 9.79148 18.4831 8.81357ZM10.2127 14.4371V9.04936L14.1883 11.7418L10.2127 14.4371Z" fill="white"/>
</svg>
